<svg width="20" height="20" viewBox="0 0 20 20" fill="none" xmlns="http://www.w3.org/2000/svg">
<g clip-path="url(#clip0)">
<path d="M19.9814 5.88005C19.9346 4.81738 19.7627 4.0868 19.5166 3.45374C19.2626 2.78176 18.8719 2.18014 18.36 1.68002C17.8599 1.1721 17.2543 0.777435 16.5901 0.527447C15.9534 0.281274 15.2266 0.109427 14.164 0.0625732C13.0934 0.0117516 12.7535 0 10.0381 0C7.32274 0 6.98286 0.0117516 5.91621 0.0586052C4.85354 0.105459 4.12296 0.277459 3.49005 0.523479C2.81792 0.777435 2.21631 1.16814 1.71618 1.68002C1.20827 2.18014 0.81375 2.78573 0.56361 3.44992C0.317438 4.0868 0.14559 4.81341 0.0987365 5.87609C0.0479149 6.9467 0.0361633 7.28658 0.0361633 10.002C0.0361633 12.7173 0.0479149 13.0572 0.0947685 14.1239C0.141622 15.1865 0.313622 15.9171 0.559794 16.5502C0.81375 17.2221 1.20827 17.8238 1.71618 18.3239C2.21631 18.8318 2.82189 19.2265 3.48608 19.4765C4.12296 19.7226 4.84957 19.8945 5.9124 19.9413C6.97889 19.9883 7.31892 19.9999 10.0343 19.9999C12.7497 19.9999 13.0895 19.9883 14.1562 19.9413C15.2189 19.8945 15.9494 19.7226 16.5823 19.4765C17.9265 18.9568 18.9891 17.8941 19.5088 16.5502C19.7548 15.9133 19.9268 15.1865 19.9737 14.1239C20.0205 13.0572 20.0323 12.7173 20.0323 10.002C20.0323 7.28658 20.0283 6.9467 19.9814 5.88005ZM18.1804 14.0457C18.1374 15.0225 17.9733 15.5499 17.8366 15.9015C17.5005 16.7728 16.809 17.4643 15.9377 17.8004C15.5861 17.9372 15.0548 18.1012 14.0819 18.1441C13.027 18.1911 12.7106 18.2027 10.0421 18.2027C7.37356 18.2027 7.05321 18.1911 6.00214 18.1441C5.02538 18.1012 4.49794 17.9372 4.14631 17.8004C3.71272 17.6402 3.31805 17.3862 2.99771 17.0541C2.66561 16.7298 2.41166 16.3391 2.25141 15.9055C2.11466 15.5539 1.9506 15.0225 1.90771 14.0497C1.86071 12.9948 1.84911 12.6783 1.84911 10.0097C1.84911 7.34122 1.86071 7.02087 1.90771 5.96995C1.9506 4.99319 2.11466 4.46575 2.25141 4.11412C2.41166 3.68038 2.66561 3.28586 3.00168 2.96536C3.32583 2.63327 3.71654 2.37931 4.15027 2.21921C4.50191 2.08247 5.03332 1.9184 6.0061 1.87537C7.061 1.82851 7.37753 1.81676 10.0459 1.81676C12.7184 1.81676 13.0348 1.82851 14.0858 1.87537C15.0626 1.9184 15.59 2.08247 15.9417 2.21921C16.3752 2.37931 16.7699 2.63327 17.0903 2.96536C17.4224 3.28967 17.6763 3.68038 17.8366 4.11412C17.9733 4.46575 18.1374 4.99701 18.1804 5.96995C18.2273 7.02484 18.239 7.34122 18.239 10.0097C18.239 12.6783 18.2273 12.9908 18.1804 14.0457Z" fill="#AFB1B8"/>
<path d="M10.0371 4.8642C7.20069 4.8642 4.89937 7.16537 4.89937 10.0019C4.89937 12.8385 7.20069 15.1396 10.0371 15.1396C12.8736 15.1396 15.1748 12.8385 15.1748 10.0019C15.1748 7.16537 12.8736 4.8642 10.0371 4.8642ZM10.0371 13.3346C8.19698 13.3346 6.70438 11.8422 6.70438 10.0019C6.70438 8.16165 8.19698 6.66921 10.0371 6.66921C11.8774 6.66921 13.3698 8.16165 13.3698 10.0019C13.3698 11.8422 11.8774 13.3346 10.0371 13.3346Z" fill="#AFB1B8"/>
<path d="M16.5775 4.6611C16.5775 5.32346 16.0405 5.86052 15.378 5.86052C14.7156 5.86052 14.1785 5.32346 14.1785 4.6611C14.1785 3.99858 14.7156 3.46167 15.378 3.46167C16.0405 3.46167 16.5775 3.99858 16.5775 4.6611Z" fill="#AFB1B8"/>
</g>
<defs>
<clipPath id="clip0">
<rect width="20" height="20" fill="white"/>
</clipPath>
</defs>
</svg>
